<?xml version="1.0" encoding="utf-8"?>
<!-- Generator: Adobe Illustrator 27.5.0, SVG Export Plug-In . SVG Version: 6.00 Build 0)  -->
<svg version="1.1" id="Layer_1" xmlns="http://www.w3.org/2000/svg" xmlns:xlink="http://www.w3.org/1999/xlink" x="0px" y="0px"
	 viewBox="0 0 800 800" style="enable-background:new 0 0 800 800;" xml:space="preserve">
<style type="text/css">
	.st0{fill:#A54D00;}
	.st1{fill:#A8D626;}
	.st2{fill:#9D2690;}
</style>
<g>
	<g id="stem">
		<g>
			<path class="st0" d="M391.2,218.9c0,0-33.7-83.5,0-205.9l42.3,24.7c0,0-32.3,134-15.1,183.4L391.2,218.9z"/>
		</g>
		<g>
			<path d="M430.9,230.8l-45.7-3.8l-2-4.9c-1.4-3.5-34.4-87.6-0.3-211.4l3-10.8l57.5,33.5l-1.5,6.2c-0.3,1.3-31.5,132.1-15.3,178.6
				L430.9,230.8z M397.5,210.8l9.7,0.8C398.1,161.1,418,67.3,423.7,42l-27-15.8C373,122.1,391.5,192.2,397.5,210.8z"/>
		</g>
	</g>
	<g id="leafs">
		<g>
			<g>
				<path class="st1" d="M411.6,212.3c0,0,16.6-129.2,152.7-118.2C564.2,94.1,544.7,231.6,411.6,212.3z"/>
			</g>
			<g>
				<path d="M436.3,222.8c-8.3,0-17-0.7-25.9-1.9l-8.4-1.2l1.1-8.4c0.2-1.3,17.8-126.3,145.1-126.3c5.4,0,11.1,0.2,16.8,0.7l9.1,0.7
					l-1.3,9C572.6,96.6,553.3,222.8,436.3,222.8z M421.7,204.9c49.9,4.7,87.6-13.9,112.5-54.7c11.3-18.5,17-37.2,19.6-48
					c-1.9-0.1-3.8-0.1-5.6-0.1C453,102.1,427.6,178.6,421.7,204.9z"/>
			</g>
		</g>
		<g>
			<g>
				<path class="st1" d="M388.4,212.3c0,0-16.7-129.2-152.7-118.2C235.8,94.1,255.3,231.6,388.4,212.3z"/>
			</g>
			<g>
				<path d="M363.7,222.8L363.7,222.8c-117,0-136.3-126.1-136.5-127.4l-1.3-9l9.1-0.7c5.7-0.5,11.3-0.7,16.8-0.7
					c127.4,0,145,125.1,145.1,126.3l1.1,8.4l-8.4,1.2C380.8,222.1,372.1,222.8,363.7,222.8z M246.2,102.2c2.6,10.8,8.4,29.5,19.6,48
					c22.4,36.8,55.4,55.4,97.9,55.4h0c4.7,0,9.6-0.2,14.6-0.7C372.2,178.1,345.5,99,246.2,102.2z"/>
			</g>
		</g>
	</g>
	<g id="single">
		<g>
			<circle class="st2" cx="400" cy="715.1" r="76.3"/>
		</g>
		<g>
			<path d="M400,800c-46.8,0-84.9-38.1-84.9-84.9s38.1-84.9,84.9-84.9s84.9,38.1,84.9,84.9C484.9,761.9,446.8,800,400,800z
				 M400,647.3c-37.4,0-67.7,30.4-67.7,67.7c0,37.4,30.4,67.7,67.7,67.7s67.7-30.4,67.7-67.7C467.7,677.7,437.4,647.3,400,647.3z"/>
		</g>
	</g>
	<g id="two">
		<g>
			<g>
				<circle class="st2" cx="332.4" cy="604.1" r="76.3"/>
			</g>
			<g>
				<path d="M332.4,689c-46.8,0-84.9-38.1-84.9-84.9c0-46.8,38.1-84.9,84.9-84.9c46.8,0,84.9,38.1,84.9,84.9
					C417.4,650.9,379.3,689,332.4,689z M332.4,536.3c-37.4,0-67.7,30.4-67.7,67.7c0,37.4,30.4,67.7,67.7,67.7
					c37.4,0,67.7-30.4,67.7-67.7C400.2,566.7,369.8,536.3,332.4,536.3z"/>
			</g>
		</g>
		<g>
			<g>
				<circle class="st2" cx="467.6" cy="604.1" r="76.3"/>
			</g>
			<g>
				<path d="M467.6,689c-46.8,0-84.9-38.1-84.9-84.9c0-46.8,38.1-84.9,84.9-84.9c46.8,0,84.9,38.1,84.9,84.9
					C552.5,650.9,514.4,689,467.6,689z M467.6,536.3c-37.4,0-67.7,30.4-67.7,67.7c0,37.4,30.4,67.7,67.7,67.7
					c37.4,0,67.7-30.4,67.7-67.7C535.3,566.7,504.9,536.3,467.6,536.3z"/>
			</g>
		</g>
	</g>
	<g id="three">
		<g>
			<g>
				<circle class="st2" cx="264.9" cy="497.9" r="76.3"/>
			</g>
			<g>
				<path d="M264.9,582.9c-46.8,0-84.9-38.1-84.9-84.9c0-46.8,38.1-84.9,84.9-84.9c46.8,0,84.9,38.1,84.9,84.9
					S311.7,582.9,264.9,582.9z M264.9,430.2c-37.4,0-67.7,30.4-67.7,67.7c0,37.4,30.4,67.7,67.7,67.7c37.4,0,67.7-30.4,67.7-67.7
					C332.6,460.6,302.2,430.2,264.9,430.2z"/>
			</g>
		</g>
		<g>
			<g>
				<circle class="st2" cx="535.1" cy="497.9" r="76.3"/>
			</g>
			<g>
				<path d="M535.1,582.9c-46.8,0-84.9-38.1-84.9-84.9c0-46.8,38.1-84.9,84.9-84.9c46.8,0,84.9,38.1,84.9,84.9
					S581.9,582.9,535.1,582.9z M535.1,430.2c-37.4,0-67.7,30.4-67.7,67.7c0,37.4,30.4,67.7,67.7,67.7c37.4,0,67.7-30.4,67.7-67.7
					C602.9,460.6,572.5,430.2,535.1,430.2z"/>
			</g>
		</g>
		<g>
			<g>
				<circle class="st2" cx="400" cy="497.9" r="76.3"/>
			</g>
			<g>
				<path d="M400,582.9c-46.8,0-84.9-38.1-84.9-84.9c0-46.8,38.1-84.9,84.9-84.9s84.9,38.1,84.9,84.9
					C484.9,544.8,446.8,582.9,400,582.9z M400,430.2c-37.4,0-67.7,30.4-67.7,67.7c0,37.4,30.4,67.7,67.7,67.7s67.7-30.4,67.7-67.7
					C467.7,460.6,437.4,430.2,400,430.2z"/>
			</g>
		</g>
	</g>
	<g id="topthree">
		<g>
			<g>
				<circle class="st2" cx="264.9" cy="295.3" r="76.3"/>
			</g>
			<g>
				<path d="M264.9,380.2c-46.8,0-84.9-38.1-84.9-84.9c0-46.8,38.1-84.9,84.9-84.9c46.8,0,84.9,38.1,84.9,84.9
					C349.8,342.1,311.7,380.2,264.9,380.2z M264.9,227.5c-37.4,0-67.7,30.4-67.7,67.7c0,37.4,30.4,67.7,67.7,67.7
					c37.4,0,67.7-30.4,67.7-67.7S302.2,227.5,264.9,227.5z"/>
			</g>
		</g>
		<g>
			<g>
				<circle class="st2" cx="535.1" cy="295.3" r="76.3"/>
			</g>
			<g>
				<path d="M535.1,380.2c-46.8,0-84.9-38.1-84.9-84.9c0-46.8,38.1-84.9,84.9-84.9c46.8,0,84.9,38.1,84.9,84.9
					C620,342.1,581.9,380.2,535.1,380.2z M535.1,227.5c-37.4,0-67.7,30.4-67.7,67.7c0,37.4,30.4,67.7,67.7,67.7
					c37.4,0,67.7-30.4,67.7-67.7S572.5,227.5,535.1,227.5z"/>
			</g>
		</g>
		<g>
			<g>
				<circle class="st2" cx="400" cy="295.3" r="76.3"/>
			</g>
			<g>
				<path d="M400,380.2c-46.8,0-84.9-38.1-84.9-84.9c0-46.8,38.1-84.9,84.9-84.9s84.9,38.1,84.9,84.9
					C484.9,342.1,446.8,380.2,400,380.2z M400,227.5c-37.4,0-67.7,30.4-67.7,67.7c0,37.4,30.4,67.7,67.7,67.7s67.7-30.4,67.7-67.7
					C467.7,257.9,437.4,227.5,400,227.5z"/>
			</g>
		</g>
	</g>
	<g id="four">
		<g>
			<g>
				<circle class="st2" cx="207" cy="386.9" r="76.3"/>
			</g>
			<g>
				<path d="M207,471.9c-46.8,0-84.9-38.1-84.9-84.9c0-46.8,38.1-84.9,84.9-84.9s84.9,38.1,84.9,84.9
					C291.9,433.8,253.8,471.9,207,471.9z M207,319.2c-37.4,0-67.7,30.4-67.7,67.7s30.4,67.7,67.7,67.7s67.7-30.4,67.7-67.7
					S244.3,319.2,207,319.2z"/>
			</g>
		</g>
		<g>
			<g>
				<circle class="st2" cx="477.2" cy="386.9" r="76.3"/>
			</g>
			<g>
				<path d="M477.2,471.9c-46.8,0-84.9-38.1-84.9-84.9c0-46.8,38.1-84.9,84.9-84.9s84.9,38.1,84.9,84.9
					C562.1,433.8,524,471.9,477.2,471.9z M477.2,319.2c-37.4,0-67.7,30.4-67.7,67.7s30.4,67.7,67.7,67.7s67.7-30.4,67.7-67.7
					C545,349.6,514.6,319.2,477.2,319.2z"/>
			</g>
		</g>
		<g>
			<g>
				<circle class="st2" cx="593" cy="386.9" r="76.3"/>
			</g>
			<g>
				<path d="M593,471.9c-46.8,0-84.9-38.1-84.9-84.9c0-46.8,38.1-84.9,84.9-84.9s84.9,38.1,84.9,84.9
					C678,433.8,639.9,471.9,593,471.9z M593,319.2c-37.4,0-67.7,30.4-67.7,67.7s30.4,67.7,67.7,67.7c37.4,0,67.7-30.4,67.7-67.7
					C660.8,349.6,630.4,319.2,593,319.2z"/>
			</g>
		</g>
		<g>
			<g>
				<circle class="st2" cx="342.1" cy="386.9" r="76.3"/>
			</g>
			<g>
				<path d="M342.1,471.9c-46.8,0-84.9-38.1-84.9-84.9c0-46.8,38.1-84.9,84.9-84.9s84.9,38.1,84.9,84.9
					C427,433.8,388.9,471.9,342.1,471.9z M342.1,319.2c-37.4,0-67.7,30.4-67.7,67.7s30.4,67.7,67.7,67.7c37.4,0,67.7-30.4,67.7-67.7
					S379.4,319.2,342.1,319.2z"/>
			</g>
		</g>
	</g>
</g>
</svg>
