<?xml version="1.0" encoding="utf-8"?>
<!-- Generator: Adobe Illustrator 27.5.0, SVG Export Plug-In . SVG Version: 6.00 Build 0)  -->
<svg version="1.1" id="pear" xmlns="http://www.w3.org/2000/svg" xmlns:xlink="http://www.w3.org/1999/xlink" x="0px" y="0px"
	 viewBox="0 0 800 800" style="enable-background:new 0 0 800 800;" xml:space="preserve">
<style type="text/css">
	.st0{fill:none;stroke:#000000;stroke-width:21.3333;stroke-linecap:round;stroke-linejoin:round;stroke-miterlimit:21.3333;}
	.st1{fill:#94BC19;stroke:#000000;stroke-width:21.3333;stroke-miterlimit:53.3333;}
	.st2{fill:#FFFFFF;}
	.st3{fill:#1BAF33;stroke:#000000;stroke-width:21.3333;stroke-miterlimit:53.3333;}
</style>
<path id="stick" class="st0" d="M407.8,238.3c0,0-32.2-152.1,30.9-211.7"/>
<path id="body" class="st1" d="M601.1,598.9c0,175.4-190.4,174.4-201.5,174.4s-201.5,1-201.5-174.4c0-1.7,0-3.3,0-4.9
	c1.8-100.4,57.3-146.4,79.3-198.8c26.3-62.8,6.9-193.9,112.3-197.9h5.3c1.7,0,3.3,0,4.9,0s3.2,0,4.9,0h5.3
	c105.3,4.1,85.9,135.2,112.3,198c21.9,52.3,77.4,98.3,79.1,198.8C601,595.7,601.1,597.3,601.1,598.9z"/>
<path id="light" class="st2" d="M241.5,547.7c13.8-40.3,47.1-71.6,59.9-60c12.7,11.6-7.3,29.3-21.9,83.8
	c-14.6,54.5-2.3,77.6-16.9,82.4C248.1,658.7,225.1,595.7,241.5,547.7z"/>
<path class="st2" d="M241.5,547.7c13.8-40.3,47.1-71.6,59.9-60c12.7,11.6-7.3,29.3-21.9,83.8c-14.6,54.5-2.3,77.6-16.9,82.4
	C248.1,658.7,225.1,595.7,241.5,547.7z"/>
<path id="greenleaf" class="st3" d="M420.3,139.8c-8.3-68.6,109.5-96,181.3-52.2C560.6,151.1,456.1,170,420.3,139.8z"/>
</svg>
