<?xml version="1.0" encoding="utf-8"?>
<!-- Generator: Adobe Illustrator 27.5.0, SVG Export Plug-In . SVG Version: 6.00 Build 0)  -->
<svg version="1.1" id="strawberry" xmlns="http://www.w3.org/2000/svg" xmlns:xlink="http://www.w3.org/1999/xlink" x="0px" y="0px"
	 viewBox="0 0 800 800" style="enable-background:new 0 0 800 800;" xml:space="preserve">
<style type="text/css">
	.st0{fill:#D8442B;stroke:#000000;stroke-width:21.3333;stroke-miterlimit:53.3333;}
	.st1{fill:none;stroke:#000000;stroke-width:21.3333;stroke-linecap:round;stroke-linejoin:round;stroke-miterlimit:21.3333;}
	.st2{fill:#49AF20;stroke:#000000;stroke-width:21.3333;stroke-miterlimit:53.3333;}
</style>
<path id="bodyies" class="st0" d="M701.9,369.6c0,171.1-209.1,403.7-301.9,403.7S98.1,540.7,98.1,369.6S233.3,162.9,400,162.9
	S701.9,198.5,701.9,369.6z"/>
<circle id="dot1" cx="179.5" cy="396.1" r="16.2"/>
<circle id="dot2" cx="319.7" cy="503.2" r="16.2"/>
<circle id="dot3" cx="618.6" cy="448.1" r="16.2"/>
<circle id="dot4" cx="473.8" cy="478.3" r="16.2"/>
<circle id="dot5" cx="399.8" cy="678.8" r="16.2"/>
<circle id="dot6" cx="413.3" cy="561.4" r="16.2"/>
<circle id="dot7" cx="565.2" cy="535.7" r="16.2"/>
<circle id="dot8" cx="319.7" cy="623.3" r="16.2"/>
<circle id="dot9" cx="397.1" cy="438.1" r="16.2"/>
<circle id="dot10" cx="227.9" cy="519.5" r="16.2"/>
<circle id="dot11" cx="516.6" cy="623.3" r="16.2"/>
<circle id="dot12" cx="516.6" cy="396.1" r="16.2"/>
<circle id="dot13" cx="388.7" cy="343.7" r="16.2"/>
<circle id="dot14" cx="278.9" cy="403.4" r="16.2"/>
<circle id="dot16" cx="625.2" cy="327.5" r="16.2"/>
<circle id="dot17" cx="179.5" cy="295" r="16.2"/>
<path id="steam4" class="st1" d="M410.7,222.2c0,0-29.9-141.2,28.7-196.5"/>
<path id="hat" class="st2" d="M504.7,200c37.8,43.7,39.9,100.2,42.7,121.1C486.9,304,401.8,247.5,400,241.9
	c-1.8,5.6-87,62.1-147.5,79.2c2.8-21,4.9-77.4,42.7-121.1c-48.7-3.5-97.6,2.5-144,17.6c13.8-23,124.4-114.4,248.8-53.3
	c124.9-60.9,235,30.5,248.8,53.3C602.3,202.5,553.4,196.5,504.7,200z"/>
</svg>
