<?xml version="1.0" encoding="utf-8"?>
<!-- Generator: Adobe Illustrator 27.5.0, SVG Export Plug-In . SVG Version: 6.00 Build 0)  -->
<svg version="1.1" id="watermellon" xmlns="http://www.w3.org/2000/svg" xmlns:xlink="http://www.w3.org/1999/xlink" x="0px"
	 y="0px" viewBox="0 0 800 800" style="enable-background:new 0 0 800 800;" xml:space="preserve">
<style type="text/css">
	.st0{fill:#65AF1E;stroke:#000000;stroke-width:21.3333;stroke-miterlimit:53.3333;}
	.st1{fill:#8CC148;}
	.st2{fill:#FF395A;}
	.st3{display:none;fill:#FF395A;}
	.st4{display:none;}
</style>
<path id="rine" class="st0" d="M774,213c0,206.6-167.5,374-374,374S26,419.5,26,213H774z"/>
<path id="lightrine" class="st1" d="M731.3,223.6c-5.7,181.9-157.8,324.8-339.7,319.2c-174-5.4-313.7-145.2-319.2-319.2H731.3z"/>
<path id="mellon" class="st2" d="M400,497.2c-154.8-0.2-281.1-124.1-284.2-278.9h568.4C681.1,373.1,554.8,497.1,400,497.2z"/>
<path id="outline" d="M678.7,223.6c-5.6,153.9-135,274.1-288.9,268.5c-146-5.3-263.1-122.5-268.5-268.5H678.7 M689.4,213H110.5
	c0,159.9,129.6,289.6,289.6,289.6S689.6,372.9,689.6,213H689.4z"/>
<path id="pink" class="st3" d="M400,430.7c-1.8,0-4.9-4.1-4.9-10.7c0-6.6,3.2-10.7,4.9-10.7s4.9,4.1,4.9,10.7
	C404.9,426.6,401.8,430.7,400,430.7z"/>
<path id="seed4" d="M400,403.9c-5.7,0-10.2,7.1-10.2,16c0,8.9,4.6,16,10.2,16s10.2-7.1,10.2-16C410.2,411.1,405.7,403.9,400,403.9z"
	/>
<path id="pink1" class="st2" d="M482.3,416c-1.9,0-5.7-2.7-7.8-8.4s-0.7-11.1,1-11.7l0,0c2.4,0,6.1,2.7,8.2,8.3
	c1.1,2.8,1.4,5.8,0.9,8.7c-0.1,1.2-0.8,2.3-1.8,3L482.3,416z"/>
<path id="seed5" d="M476.1,390.5c-0.8,0-1.6,0.1-2.3,0.4c-5.3,2-7.1,10.2-4.1,18.6c1.5,6.1,6.5,10.8,12.7,11.9
	c0.8,0,1.6-0.1,2.3-0.4c5.3-2,7.1-10.2,4.1-18.6C487.3,396.2,482.2,391.5,476.1,390.5L476.1,390.5z"/>
<path id="pink2" class="st2" d="M553.5,374.4c-3.6-0.5-6.9-2.4-9.1-5.3c-4.3-5.3-4.4-10.2-3.1-11.4c0.4-0.3,1-0.5,1.5-0.4
	c3.6,0.5,6.9,2.4,9.1,5.3c2,2.2,3.3,4.9,3.8,7.8c0.3,1.2,0,2.5-0.7,3.5C554.6,374.2,554.1,374.4,553.5,374.4z"/>
<path id="seed6" d="M542.8,352c-1.8-0.1-3.6,0.5-5,1.7c-4.3,3.7-3.2,12.1,2.5,18.9c3.2,4.2,8,6.8,13.2,7.3c1.8,0.1,3.6-0.5,5-1.7
	c4.3-3.7,3.2-12.1-2.5-18.9C552.9,355.1,548.1,352.5,542.8,352z"/>
<path id="pink3" class="st2" d="M605.1,310.6c-2.7-0.1-5.4-0.9-7.8-2.3c-5.8-3.3-7.7-8.1-6.8-9.5c1-1,2.4-1.5,3.8-1.3
	c2.8,0.1,5.5,0.9,7.9,2.3c5.8,3.3,7.7,8.1,6.8,9.5C608,310.3,606.6,310.8,605.1,310.6z"/>
<path id="seed7" d="M594.2,292.1c-3.3-0.3-6.6,1.2-8.5,4c-2.8,4.9,1.2,12.5,8.9,16.9c3.2,1.9,6.9,3,10.7,3c3.3,0.3,6.6-1.2,8.5-4
	c2.8-4.9-1.2-12.5-8.9-16.9C601.6,293.2,597.9,292.1,594.2,292.1z"/>
<path id="pink4" class="st2" d="M195.2,311.1c-1.4,0.2-2.8-0.3-3.8-1.3c-0.9-1.5,1.1-6.3,6.8-9.6c2.4-1.4,5.1-2.2,7.9-2.3
	c1.4-0.2,2.8,0.3,3.8,1.3c0.9,1.5-1.1,6.3-6.8,9.6C200.7,310.2,198,311,195.2,311.1z"/>
<path id="seed1" d="M206.1,292.6c-3.8,0.1-7.4,1.1-10.7,3c-7.7,4.4-11.6,11.9-8.8,16.9c1.9,2.8,5.1,4.3,8.4,4
	c3.8-0.1,7.4-1.1,10.7-3c7.7-4.4,11.6-11.9,8.8-16.9C212.7,293.8,209.5,292.3,206.1,292.6z"/>
<path id="pink5" class="st2" d="M246.5,374.4c-0.5,0-1.1-0.1-1.5-0.4c-0.7-1-1-2.3-0.7-3.5c0.5-2.9,1.9-5.6,3.8-7.8
	c2.2-2.9,5.5-4.9,9.1-5.3c0.6,0,1.1,0.1,1.5,0.4c1.3,1.1,1.2,6.3-3.1,11.4C253.4,372,250.1,373.9,246.5,374.4z"/>
<path id="seed2" d="M257.2,352c-5.2,0.5-10,3.1-13.2,7.3c-5.7,6.8-6.8,15.2-2.5,18.9c1.4,1.1,3.2,1.7,5,1.7c5.2-0.5,10-3.1,13.2-7.3
	c5.7-6.8,6.8-15.2,2.5-18.9C260.7,352.5,259,351.9,257.2,352z"/>
<path id="pink6" class="st2" d="M318.3,416h-0.5c-1.7-0.6-3.3-5.3-1-11.7s5.9-8.4,7.8-8.4c1.9,0,3.8,5.3,1.5,11.8S320,416,318.3,416
	z"/>
<path id="seed3" d="M324.5,390.7c-6.3,1.1-11.3,5.8-12.8,11.9c-3,8.3-1.2,16.6,4.2,18.6c0.8,0.3,1.5,0.4,2.3,0.4
	c6.3-1.1,11.3-5.8,12.8-11.9c3-8.3,1.2-16.6-4.2-18.6C326.1,390.8,325.3,390.7,324.5,390.7z"/>
<path id="pink7" class="st2" d="M400,349.8c-1.8,0-4.9-4.1-4.9-10.7c0-6.6,3.2-10.7,4.9-10.7s4.9,4.1,4.9,10.7
	S401.8,349.8,400,349.8z"/>
<path id="middle" d="M400,323.1c-5.7,0-10.2,7.1-10.2,16c0,8.9,4.6,16,10.2,16s10.2-7.1,10.2-16S405.7,323.1,400,323.1z"/>
<path id="pink8" class="st2" d="M484,326.7c-3.8-0.8-7.1-3.2-8.9-6.7c-3.5-5.6-3-10.7-1.5-11.7c0.3-0.1,0.7-0.1,1,0
	c3.8,0.7,7,3,8.9,6.3c3.5,5.6,3,10.7,1.5,11.7C484.7,326.6,484.4,326.7,484,326.7z"/>
<path id="left" class="st4" d="M474.7,302.8c-1.4,0-2.7,0.4-3.8,1.1c-4.8,3-4.9,11.5,0,19c2.7,5,7.7,8.5,13.3,9.2
	c1.4,0,2.7-0.4,3.8-1.1c4.8-3,4.9-11.5,0-19C485.3,306.9,480.3,303.5,474.7,302.8z"/>
<path id="pink9" class="st3" d="M315.5,326.3c-0.3,0.1-0.7,0.1-1,0c-1.5-0.9-2-6,1.5-11.7c1.8-3.5,5-5.9,8.9-6.7
	c0.3-0.1,0.7-0.1,1,0c1.5,0.9,2,6-1.5,11.7C322.5,323.1,319.3,325.6,315.5,326.3z"/>
<path id="right" class="st4" d="M324.8,302.5c-5.7,0.7-10.6,4.1-13.3,9.2c-4.7,7.5-4.6,16,0,19c1.2,0.7,2.5,1.1,3.8,1.1
	c5.7-0.7,10.6-4.1,13.3-9.2c4.7-7.5,4.6-16,0-19C327.5,302.8,326.2,302.4,324.8,302.5z"/>
</svg>
